# xmcd
#
# Track frame offsets:
#	150
#	19210
#	36743
#	52133
#	67842
#	83973
#	98540
#	118385
#	138957
#	158199
#	173044
#
# Disc length: 2535 seconds
#
# Revision: 1
# Processed by: cddbd v1.5PL3 Copyright (c) Steve Scherf et al.
# Submitted via: EasyCDDAExtractor 7.0.5.1
#
DISCID=9609e50b
DTITLE=Clarence Gatemouth Brown - No Looking Back
DYEAR=1999
DGENRE=Blues
TTITLE0=Better Off With The Blues
TTITLE1=Digging New Ground
TTITLE2=Dope
TTITLE3=My Own Prison
TTITLE4=Stop Time
TTITLE5=C Jam Blues
TTITLE6=Straighten Up
TTITLE7=The Peeper
TTITLE8=Alligator Eating Dog
TTITLE9=I Will Be Your Friend
TTITLE10=We're Outta Here
EXTD=
EXTT0=
EXTT1=
EXTT2=
EXTT3=
EXTT4=
EXTT5=
EXTT6=
EXTT7=
EXTT8=
EXTT9=
EXTT10=
PLAYORDER=
